<svg width="52" height="52" viewBox="0 0 52 52" fill="none" xmlns="http://www.w3.org/2000/svg">
<path d="M15.4917 45.7167C14.95 45.175 14.6792 44.5337 14.6792 43.7927C14.6792 43.0531 14.95 42.4125 15.4917 41.8708L31.3625 26L15.4375 10.075C14.9319 9.56943 14.6792 8.93749 14.6792 8.17916C14.6792 7.42082 14.95 6.77082 15.4917 6.22916C16.0333 5.68749 16.6747 5.41666 17.4157 5.41666C18.1552 5.41666 18.7958 5.68749 19.3375 6.22916L37.5375 24.4833C37.7542 24.7 37.908 24.9347 37.999 25.1875C38.0886 25.4403 38.1333 25.7111 38.1333 26C38.1333 26.2889 38.0886 26.5597 37.999 26.8125C37.908 27.0653 37.7542 27.3 37.5375 27.5167L19.2833 45.7708C18.7778 46.2764 18.1552 46.5292 17.4157 46.5292C16.6747 46.5292 16.0333 46.2583 15.4917 45.7167Z" fill="#FF4855"/>
</svg>
